<svg width="100%" height="100%" viewBox="0 0 120 19" fill="none" xmlns="http://www.w3.org/2000/svg">
<g id="logo" clip-path="url(#clip0_215_850)">
<g id="Vector 29">
<path d="M2.77332 -4.57764e-05L0 3.72968H19.6526L8.68106 18.4H24.2341L33.156 6.46482L28.8156 3.72968H38.9432L42.9219 5.22158L33.0351 18.4H59.6803C59.6803 18.4 62.5745 18.3497 64.2618 17.9027C65.9846 17.4462 68.1199 16.1136 68.1199 16.1136L87.2899 5.09725H63.0564L65.4674 8.20536L57.1484 13.0019C57.1484 13.0019 55.581 13.9914 54.2548 14.2973C53.2899 14.5198 51.7229 14.6702 51.7229 14.6702H49.6736L55.3402 7.08644L35.929 -4.57764e-05H2.77332Z" fill="white"/>
<path d="M56.1838 5.8432L40.1485 -4.57764e-05H120L117.19 3.72968H101.999L105.254 7.95671L97.538 18.4H81.985L92.9565 3.72968H57.7512L56.1838 5.8432Z" fill="white"/>
</g>
</g>
<defs>
<clipPath id="clip0_215_850">
<rect width="120" height="19" fill="white"/>
</clipPath>
</defs>
</svg>
