<svg width="100%" height="100%" viewBox="0 0 24 24" fill="none" xmlns="http://www.w3.org/2000/svg">
<g clip-path="url(#clip0_1447_633293)">
<path d="M7 6.5L12.5 12L7 17.5" stroke="currentColor" stroke-width="2" stroke-linecap="round" stroke-linejoin="round"/>
<path d="M16 6.5V17.5" stroke="currentColor" stroke-width="2" stroke-linecap="round"/>
</g>
<g clip-path="url(#clip1_1447_633293)">
<path d="M7.70711 5.79289C7.31658 5.40237 6.68342 5.40237 6.29289 5.79289C5.90237 6.18342 5.90237 6.81658 6.29289 7.20711L11.0858 12L6.29289 16.7929C5.90237 17.1834 5.90237 17.8166 6.29289 18.2071C6.68342 18.5976 7.31658 18.5976 7.70711 18.2071L13.2071 12.7071C13.5976 12.3166 13.5976 11.6834 13.2071 11.2929L7.70711 5.79289Z" fill="currentColor"/>
<path d="M16 18.5C16.5523 18.5 17 18.0523 17 17.5V6.5C17 5.94772 16.5523 5.5 16 5.5C15.4477 5.5 15 5.94772 15 6.5V17.5C15 18.0523 15.4477 18.5 16 18.5Z" fill="currentColor"/>
</g>
<defs>
<clipPath id="clip0_1447_633293">
<rect width="11" height="14" fill="currentColor" transform="translate(6 5)"/>
</clipPath>
<clipPath id="clip1_1447_633293">
<rect width="11" height="14" fill="currentColor" transform="translate(6 5)"/>
</clipPath>
</defs>
</svg>
