<svg width="100%" height="100%" viewBox="0 0 24 24" fill="none" xmlns="http://www.w3.org/2000/svg">
<g clip-path="url(#clip0_1447_633295)">
<path d="M8.2 13.4C8.86274 13.4 9.4 12.8627 9.4 12.2C9.4 11.5373 8.86274 11 8.2 11C7.53726 11 7 11.5373 7 12.2C7 12.8627 7.53726 13.4 8.2 13.4Z" fill="currentColor"/>
<path d="M13.4 12.2C13.4 12.8627 12.8627 13.4 12.2 13.4C11.5373 13.4 11 12.8627 11 12.2C11 11.5373 11.5373 11 12.2 11C12.8627 11 13.4 11.5373 13.4 12.2Z" fill="currentColor"/>
<path d="M16.2 13.4C16.8627 13.4 17.4 12.8627 17.4 12.2C17.4 11.5373 16.8627 11 16.2 11C15.5373 11 15 11.5373 15 12.2C15 12.8627 15.5373 13.4 16.2 13.4Z" fill="currentColor"/>
<path fill-rule="evenodd" clip-rule="evenodd" d="M11.9949 22C11.739 22 11.4853 21.9904 11.234 21.9714C11.1576 21.9901 11.0778 22 10.9957 22H3.60168C1.76871 22 0.901314 19.7396 2.26375 18.5134L3.54915 17.3566C2.56512 15.8079 1.99486 13.9695 1.99486 12C1.99486 6.47715 6.47201 2 11.9949 2C17.5177 2 21.9949 6.47715 21.9949 12C21.9949 17.5228 17.5177 22 11.9949 22ZM3.99486 12C3.99486 7.58172 7.57658 4 11.9949 4C16.4131 4 19.9949 7.58172 19.9949 12C19.9949 16.4183 16.4131 20 11.9949 20C11.6939 20 11.3972 19.9834 11.1055 19.9512C10.9566 19.9348 10.8077 19.9521 10.6691 20H3.60168L5.5452 18.2508C5.9345 17.9005 5.98751 17.3091 5.66673 16.8951C4.61834 15.542 3.99486 13.8452 3.99486 12Z" fill="currentColor"/>
</g>
<defs>
<clipPath id="clip0_1447_633295">
<rect width="21" height="20" fill="white" transform="translate(1 2)"/>
</clipPath>
</defs>
</svg>
