<svg width="100%" height="100%" viewBox="0 0 24 24" fill="none" xmlns="http://www.w3.org/2000/svg">
<path d="M7 4C7 3.44772 6.55228 3 6 3C5.44772 3 5 3.44772 5 4V16C5 16.5523 5.44772 17 6 17H16.5858L13.2929 20.2929C12.9024 20.6834 12.9024 21.3166 13.2929 21.7071C13.6834 22.0976 14.3166 22.0976 14.7071 21.7071L19.7071 16.7071C20.0976 16.3166 20.0976 15.6834 19.7071 15.2929L14.7071 10.2929C14.3166 9.90237 13.6834 9.90237 13.2929 10.2929C12.9024 10.6834 12.9024 11.3166 13.2929 11.7071L16.5858 15H7V4Z" fill="currentColor"/>
</svg>
