<svg width="100%" height="100%" viewBox="0 0 24 24" fill="none" xmlns="http://www.w3.org/2000/svg">
<g clip-path="url(#clip0_1447_633263)">
<path d="M10.7646 3.80383C11.1491 4.2003 11.1393 4.83339 10.7429 5.21788L5.92301 9.892C4.7444 11.0348 4.10569 12.3713 4.01214 13.6278C3.92018 14.8629 4.34639 16.0903 5.43512 17.1037C7.63227 19.1489 10.8083 18.8921 12.9908 16.6877L13.0053 16.6733L19.121 10.7434C20.293 9.60704 20.293 7.77772 19.121 6.64131C17.9317 5.48813 15.991 5.48813 14.8017 6.64131L13.5054 7.89818L13.5033 7.90024L8.34169 12.8755C7.95332 13.2499 7.95251 13.8455 8.33957 14.2208C8.74318 14.6122 9.40996 14.6122 9.81356 14.2208L16.4697 7.76694C16.8662 7.38249 17.4993 7.39225 17.8837 7.78875C18.2682 8.18526 18.2584 8.81835 17.8619 9.2028L11.2058 15.6567C10.0264 16.8002 8.1267 16.8002 6.94734 15.6567C5.74811 14.4939 5.75112 12.5947 6.95372 11.4355L12.1132 6.46233L12.1153 6.46027L13.4095 5.20545C15.3745 3.30008 18.5482 3.30009 20.5132 5.20545C22.4956 7.12759 22.4956 10.2572 20.5132 12.1793L14.4046 18.1023C11.5807 20.9476 7.17622 21.4567 4.07244 18.5676C2.54184 17.1429 1.88036 15.3234 2.01766 13.4793C2.15336 11.6566 3.06088 9.88141 4.53067 8.45625L9.35052 3.78213C9.74699 3.39764 10.3801 3.40736 10.7646 3.80383Z" fill="currentColor"/>
</g>
<defs>
<clipPath id="clip0_1447_633263">
<rect width="20" height="18" fill="white" transform="translate(2 3)"/>
</clipPath>
</defs>
</svg>
