<svg width="100%" height="100%" viewBox="0 0 24 24" fill="none" xmlns="http://www.w3.org/2000/svg">
<g clip-path="url(#clip0_1447_633254)">
<circle cx="16.75" cy="9.75" r="1.25" fill="currentColor"/>
<circle cx="14.75" cy="12.75" r="1.25" fill="currentColor"/>
<path d="M8.5 8.47452C9.05228 8.47452 9.5 8.92223 9.5 9.47452V10.4745H10.5C11.0523 10.4745 11.5 10.9222 11.5 11.4745C11.5 12.0268 11.0523 12.4745 10.5 12.4745H9.5V13.4745C9.5 14.0268 9.05228 14.4745 8.5 14.4745C7.94772 14.4745 7.5 14.0268 7.5 13.4745V12.4745H6.5C5.94772 12.4745 5.5 12.0268 5.5 11.4745C5.5 10.9222 5.94772 10.4745 6.5 10.4745H7.5V9.47452C7.5 8.92223 7.94772 8.47452 8.5 8.47452Z" fill="currentColor"/>
<path fill-rule="evenodd" clip-rule="evenodd" d="M2 9.37265C2 6.16446 4.83888 3.71526 8.04447 4.02673L11.5594 4.36824C11.8524 4.39671 12.1476 4.39671 12.4406 4.36824L15.9555 4.02673C19.1611 3.71526 22 6.16446 22 9.37265V15.619C22 19.822 16.4429 21.2759 14.2056 17.8436C13.3571 16.5419 11.3943 16.4951 10.4818 17.7616L10.226 18.1167C7.7196 21.5956 2 19.9526 2 15.5675V9.37265ZM7.85106 6.01735C5.75848 5.81403 4 7.40733 4 9.37265V15.5675C4 17.8816 7.15571 18.9569 8.60326 16.9476L8.85908 16.5925C10.5903 14.1895 14.2631 14.2692 15.8811 16.7515C17.1045 18.6283 20 17.7003 20 15.619V9.37265C20 7.40733 18.2415 5.81403 16.1489 6.01735L12.634 6.35887C12.2124 6.39984 11.7876 6.39984 11.366 6.35887L7.85106 6.01735Z" fill="currentColor"/>
</g>
<defs>
<clipPath id="clip0_1447_633254">
<rect width="20" height="16" fill="currentColor" transform="translate(2 4)"/>
</clipPath>
</defs>
</svg>
