<svg width="100%" height="100%" viewBox="0 0 24 24" fill="none" xmlns="http://www.w3.org/2000/svg">
<g clip-path="url(#clip0_1447_633280)">
<path fill-rule="evenodd" clip-rule="evenodd" d="M2.38911 14.3673C2.43225 13.6338 2.74307 12.9417 3.26261 12.4222L12.978 2.7068C14.1495 1.53523 16.049 1.53523 17.2206 2.7068L20.049 5.53523C21.2206 6.7068 21.2206 8.6063 20.049 9.77787L17.9466 11.8803C17.9405 11.8867 17.9344 11.893 17.9281 11.8993C17.9218 11.9056 17.9155 11.9118 17.9091 11.9178L10.3337 19.4932C9.81414 20.0128 9.122 20.3236 8.38852 20.3667L5.38332 20.5435C3.59016 20.649 2.10685 19.1657 2.21233 17.3725L2.38911 14.3673ZM17.2207 9.77776L18.6348 8.36366C19.0254 7.97313 19.0254 7.33997 18.6348 6.94945L15.8064 4.12102C15.4159 3.73049 14.7827 3.73049 14.3922 4.12102L12.9781 5.53511L17.2207 9.77776ZM11.5639 6.94933L15.8065 11.192L8.91946 18.079C8.74628 18.2522 8.51557 18.3558 8.27108 18.3702L5.26588 18.547C4.66815 18.5821 4.17372 18.0877 4.20888 17.49L4.38566 14.4848C4.40004 14.2403 4.50364 14.0096 4.67682 13.8364L11.5639 6.94933Z" fill="currentColor"/>
<path d="M16.4283 19.7504C16.0728 19.13 15.3841 19.1031 14.9836 19.6012C14.9722 19.6155 14.9603 19.6295 14.948 19.6431L14.2481 20.4217C13.8789 20.8325 13.2467 20.8662 12.8359 20.497C12.4252 20.1278 12.3915 19.4955 12.7607 19.0848L13.4438 18.3247C14.7648 16.7123 17.1396 16.9692 18.1636 18.756C18.495 19.3343 19.1086 19.3899 19.5098 19.0119L20.7523 17.5942C21.1164 17.1788 21.7481 17.1372 22.1635 17.5012C22.5789 17.8652 22.6205 18.497 22.2565 18.9123L20.9879 20.3599C20.973 20.3769 20.9576 20.3933 20.9416 20.4092C19.5541 21.7918 17.381 21.4127 16.4283 19.7504Z" fill="currentColor"/>
</g>
<defs>
<clipPath id="clip0_1447_633280">
<rect width="21" height="21" fill="currentColor" transform="translate(2 1)"/>
</clipPath>
</defs>
</svg>
