<svg width="100%" height="100%" viewBox="0 0 24 24" fill="none" xmlns="http://www.w3.org/2000/svg">
<g clip-path="url(#clip0_1447_633252)">
<path fill-rule="evenodd" clip-rule="evenodd" d="M3.92527 12.8787C5.21463 9.72813 8.34143 7.5 11.9998 7.5C15.6581 7.5 18.7849 9.72813 20.0743 12.8787C20.2835 13.3899 20.8674 13.6347 21.3785 13.4255C21.8897 13.2163 22.1345 12.6324 21.9253 12.1213C20.3351 8.23548 16.4877 5.5 11.9998 5.5C7.51187 5.5 3.66448 8.23548 2.07428 12.1213C1.8651 12.6324 2.10989 13.2163 2.62103 13.4255C3.13217 13.6347 3.7161 13.3899 3.92527 12.8787ZM12.0027 17.4992C13.9357 17.4992 15.5027 15.9322 15.5027 13.9992C15.5027 12.0662 13.9357 10.4992 12.0027 10.4992C10.0697 10.4992 8.50272 12.0662 8.50272 13.9992C8.50272 15.9322 10.0697 17.4992 12.0027 17.4992Z" fill="currentColor"/>
</g>
<defs>
<clipPath id="clip0_1447_633252">
<rect width="20" height="13" fill="currentColor" transform="translate(2 5)"/>
</clipPath>
</defs>
</svg>
