<svg width="100%" height="100%" viewBox="0 0 24 24" fill="none" xmlns="http://www.w3.org/2000/svg">
<path d="M9 7C9 6.44772 9.44772 6 10 6H14C14.5523 6 15 6.44772 15 7C15 7.55228 14.5523 8 14 8H10C9.44772 8 9 7.55228 9 7Z" fill="currentColor"/>
<path d="M12 16C11.4477 16 11 16.4477 11 17C11 17.5523 11.4477 18 12 18H12.1C12.6523 18 13.1 17.5523 13.1 17C13.1 16.4477 12.6523 16 12.1 16H12Z" fill="currentColor"/>
<path fill-rule="evenodd" clip-rule="evenodd" d="M4 5.25C4 3.4211 5.52698 2 7.33334 2L16.6667 2.00001C18.473 2.00002 20 3.42112 20 5.25001V18.75C20 20.5789 18.473 22 16.6667 22H7.33333C5.52697 22 4 20.5789 4 18.75V5.25ZM7.33334 4C6.56236 4 6 4.59361 6 5.25V18.75C6 19.4064 6.56236 20 7.33333 20H16.6667C17.4376 20 18 19.4064 18 18.75V5.25001C18 4.59362 17.4376 4.00001 16.6667 4.00001L7.33334 4Z" fill="currentColor"/>
</svg>
