<svg width="100%" height="100%" viewBox="0 0 24 24" fill="none" xmlns="http://www.w3.org/2000/svg">
<g clip-path="url(#clip0_1447_633265)">
<path d="M5.5055 11.729C5.6479 7.98859 8.72512 5 12.5004 5C16.3663 5 19.5004 8.13401 19.5004 12C19.5004 15.866 16.3663 19 12.5004 19C10.6358 19 8.94332 18.2723 7.68797 17.0834C7.28698 16.7037 6.65405 16.7209 6.27428 17.1219C5.89452 17.5229 5.91173 18.1558 6.31273 18.5356C7.92471 20.0622 10.1041 21 12.5004 21C17.4709 21 21.5004 16.9706 21.5004 12C21.5004 7.02944 17.4709 3 12.5004 3C8.1867 3 4.58185 6.03476 3.70436 10.0857L3.36619 9.5C3.09005 9.02171 2.47846 8.85783 2.00017 9.13397C1.52187 9.41011 1.358 10.0217 1.63414 10.5L3.63414 13.9641C3.91028 14.4424 4.52187 14.6063 5.00017 14.3301L8.46427 12.3301C8.94256 12.054 9.10644 11.4424 8.83029 10.9641C8.55415 10.4858 7.94256 10.3219 7.46427 10.5981L5.5055 11.729Z" fill="currentColor"/>
</g>
<defs>
<clipPath id="clip0_1447_633265">
<rect width="20" height="18" fill="currentColor" transform="translate(1.5 3)"/>
</clipPath>
</defs>
</svg>
