<svg width="100%" height="100%" viewBox="0 0 24 24" fill="none" xmlns="http://www.w3.org/2000/svg">
<g clip-path="url(#clip0_1447_633251)">
<path d="M4.99996 11.998H3.99996H4.99996ZM14.2896 3.83608L13.3624 4.21084L14.2896 3.83608ZM19.9526 9.40687L20.7141 10.055L19.9526 9.40687ZM20.1871 8.2571L19.2779 8.67343L20.1871 8.2571ZM18.3044 17.6696L18.2292 18.6668L18.3044 17.6696ZM13.4958 20.8763L13.6608 21.8625L13.4958 20.8763ZM4.70819 17.2765L3.89854 17.8634L4.70819 17.2765ZM5.69529 17.6696L5.6203 16.6724L5.69529 17.6696ZM18.3024 6.3266L18.3771 7.3238L18.3024 6.3266ZM3.81144 15.74L2.90208 16.156L3.81144 15.74ZM10.5031 20.8761L10.6682 19.8898L10.5031 20.8761ZM20.1885 15.74L19.2791 15.324L20.1885 15.74ZM19.9535 14.5903L19.1922 15.2387L19.9535 14.5903ZM5.69728 6.32664L5.62278 7.32386L5.69728 6.32664ZM3.90185 6.13199C3.51562 6.66418 3.18041 7.23616 2.90356 7.84076L4.72198 8.67343C4.9432 8.19032 5.21127 7.7328 5.5205 7.30672L3.90185 6.13199ZM3.28581 10.055C3.73177 10.579 3.99996 11.2559 3.99996 11.998H5.99996C5.99996 10.7633 5.55109 9.6308 4.80884 8.75872L3.28581 10.055ZM3.99996 11.998C3.99996 12.7406 3.7315 13.4178 3.28512 13.9419L4.80769 15.2387C5.55062 14.3665 5.99996 13.2335 5.99996 11.998H3.99996ZM2.90208 16.156C3.17843 16.7601 3.51302 17.3316 3.89854 17.8634L5.51785 16.6896C5.20919 16.2638 4.94162 15.8067 4.7208 15.324L2.90208 16.156ZM5.99953 16.6582C5.87213 16.6582 5.74565 16.663 5.6203 16.6724L5.77029 18.6668C5.84578 18.6611 5.92222 18.6582 5.99953 18.6582V16.6582ZM10.6382 19.7891C9.89871 17.9553 8.1018 16.6582 5.99953 16.6582V18.6582C7.25837 18.6582 8.33845 19.4339 8.78331 20.5371L10.6382 19.7891ZM10.3379 21.8624C10.8791 21.953 11.4344 22 12 22V20C11.5455 20 11.1007 19.9622 10.6682 19.8898L10.3379 21.8624ZM12 22C12.5651 22 13.12 21.953 13.6608 21.8625L13.3308 19.89C12.8986 19.9623 12.4541 20 12 20V22ZM17.9995 16.6582C15.8972 16.6582 14.1003 17.9554 13.3608 19.7892L15.2157 20.5372C15.6606 19.4339 16.7407 18.6582 17.9995 18.6582V16.6582ZM18.3795 16.6725C18.2539 16.663 18.1272 16.6582 17.9995 16.6582V18.6582C18.077 18.6582 18.1536 18.6611 18.2292 18.6668L18.3795 16.6725ZM20.1013 17.8635C20.4869 17.3317 20.8215 16.7601 21.0978 16.156L19.2791 15.324C19.0583 15.8067 18.7907 16.2639 18.482 16.6897L20.1013 17.8635ZM20.7148 13.9419C20.2684 13.4178 20 12.7406 20 11.998H18C18 13.2335 18.4493 14.3665 19.1922 15.2387L20.7148 13.9419ZM20 11.998C20 11.2559 20.2681 10.579 20.7141 10.055L19.1911 8.75872C18.4488 9.6308 18 10.7633 18 11.998H20ZM21.0964 7.84076C20.8195 7.23612 20.4843 6.66411 20.098 6.1319L18.4794 7.30664C18.7886 7.73274 19.0567 8.19029 19.2779 8.67343L21.0964 7.84076ZM18.2278 5.32939C18.1526 5.33501 18.0765 5.33789 17.9995 5.33789V7.33789C18.1264 7.33789 18.2523 7.33315 18.3771 7.3238L18.2278 5.32939ZM17.9995 5.33789C16.7416 5.33789 15.6621 4.56331 15.2167 3.46132L13.3624 4.21084C14.1029 6.04259 15.8987 7.33789 17.9995 7.33789V5.33789ZM13.6628 2.13779C13.1214 2.0471 12.5658 2 12 2V4C12.4546 4 12.8997 4.03783 13.3324 4.11031L13.6628 2.13779ZM12 2C11.4338 2 10.8778 2.04716 10.336 2.13797L10.6666 4.11045C11.0996 4.03788 11.545 4 12 4V2ZM8.78238 3.46139C8.33692 4.56335 7.25749 5.33789 5.99956 5.33789V7.33789C8.10032 7.33789 9.89615 6.04265 10.6366 4.21096L8.78238 3.46139ZM5.99956 5.33789C5.92276 5.33789 5.84681 5.33503 5.77179 5.32942L5.62278 7.32386C5.74733 7.33317 5.87299 7.33789 5.99956 7.33789V5.33789ZM10.336 2.13797C9.5061 2.27707 9.00489 2.91097 8.78238 3.46139L10.6366 4.21096C10.6485 4.18152 10.662 4.15645 10.6751 4.1365C10.6883 4.11651 10.6994 4.10448 10.7057 4.09852C10.7118 4.09274 10.7117 4.09426 10.7039 4.09833C10.6954 4.10277 10.6823 4.10782 10.6666 4.11045L10.336 2.13797ZM15.2167 3.46132C14.9942 2.91082 14.4929 2.27682 13.6628 2.13779L13.3324 4.11031C13.3167 4.10767 13.3036 4.10263 13.2951 4.09818C13.2873 4.09411 13.2873 4.09259 13.2934 4.09837C13.2997 4.10434 13.3107 4.11637 13.3239 4.13636C13.3371 4.15631 13.3505 4.18139 13.3624 4.21084L15.2167 3.46132ZM20.7141 10.055C21.1409 9.55359 21.4902 8.70094 21.0964 7.84076L19.2779 8.67343C19.2709 8.65802 19.2674 8.64236 19.2665 8.6307C19.2657 8.62019 19.2674 8.61897 19.2652 8.6285C19.2629 8.63839 19.2571 8.65649 19.2443 8.68093C19.2315 8.7053 19.2137 8.7321 19.1911 8.75872L20.7141 10.055ZM18.2292 18.6668C18.8215 18.7115 19.6091 18.5425 20.1013 17.8635L18.482 16.6897C18.4912 16.677 18.5014 16.6676 18.509 16.6621C18.516 16.657 18.5173 16.6577 18.5095 16.6605C18.5015 16.6635 18.486 16.668 18.4625 16.671C18.439 16.6739 18.4109 16.6748 18.3795 16.6725L18.2292 18.6668ZM13.6608 21.8625C14.4919 21.7235 14.9934 21.0884 15.2157 20.5372L13.3608 19.7892C13.3489 19.8187 13.3355 19.8438 13.3223 19.8638C13.3091 19.8839 13.2981 19.8959 13.2917 19.9019C13.2856 19.9077 13.2857 19.9062 13.2935 19.9021C13.302 19.8976 13.3151 19.8926 13.3308 19.89L13.6608 21.8625ZM3.89854 17.8634C4.39065 18.5423 5.17806 18.7113 5.77029 18.6668L5.6203 16.6724C5.58897 16.6748 5.56085 16.6738 5.5374 16.6709C5.5139 16.668 5.4984 16.6634 5.49034 16.6605C5.48253 16.6576 5.48387 16.657 5.49084 16.662C5.49845 16.6676 5.50863 16.6769 5.51785 16.6896L3.89854 17.8634ZM20.098 6.1319C19.606 5.45399 18.8195 5.28509 18.2278 5.32939L18.3771 7.3238C18.4084 7.32146 18.4365 7.32241 18.4599 7.32534C18.4833 7.32828 18.4988 7.33279 18.5069 7.33576C18.5147 7.33864 18.5133 7.33925 18.5064 7.3342C18.4988 7.32868 18.4886 7.31935 18.4794 7.30664L20.098 6.1319ZM3.28512 13.9419C2.85816 14.4432 2.5085 15.2957 2.90208 16.156L4.7208 15.324C4.72785 15.3394 4.73129 15.3551 4.73218 15.3667C4.73299 15.3772 4.73132 15.3785 4.73355 15.3689C4.73585 15.359 4.74163 15.3409 4.75445 15.3165C4.76723 15.2921 4.78501 15.2653 4.80769 15.2387L3.28512 13.9419ZM8.78331 20.5371C9.00557 21.0882 9.50704 21.7233 10.3379 21.8624L10.6682 19.8898C10.6839 19.8924 10.697 19.8975 10.7055 19.9019C10.7133 19.906 10.7134 19.9075 10.7073 19.9018C10.7009 19.8958 10.6899 19.8837 10.6767 19.8637C10.6635 19.8437 10.6501 19.8186 10.6382 19.7891L8.78331 20.5371ZM2.90356 7.84076C2.50968 8.70094 2.85903 9.55359 3.28581 10.055L4.80884 8.75872C4.78618 8.7321 4.7684 8.7053 4.75563 8.68093C4.74281 8.65649 4.73705 8.63839 4.73474 8.6285C4.73252 8.61897 4.73419 8.62019 4.73338 8.6307C4.73248 8.64237 4.72904 8.65802 4.72198 8.67343L2.90356 7.84076ZM21.0978 16.156C21.4914 15.2957 21.1418 14.4432 20.7148 13.9419L19.1922 15.2387C19.2149 15.2653 19.2327 15.2921 19.2455 15.3165C19.2583 15.3409 19.2641 15.359 19.2664 15.3689C19.2686 15.3785 19.2669 15.3772 19.2677 15.3667C19.2686 15.3551 19.2721 15.3394 19.2791 15.324L21.0978 16.156ZM5.5205 7.30672C5.51127 7.31943 5.50111 7.32875 5.49351 7.33427C5.48655 7.33932 5.48521 7.33871 5.49301 7.33583C5.50106 7.33286 5.51653 7.32835 5.53999 7.32541C5.5634 7.32247 5.59148 7.32152 5.62278 7.32386L5.77179 5.32942C5.18013 5.28521 4.39376 5.45418 3.90185 6.13199L5.5205 7.30672Z" fill="currentColor"/>
<circle cx="3" cy="3" r="3" transform="matrix(-1 0 0 1 15.002 9)" stroke="currentColor" stroke-width="2" stroke-linejoin="round"/>
</g>
<g clip-path="url(#clip1_1447_633251)">
<path fill-rule="evenodd" clip-rule="evenodd" d="M12.002 8C14.2111 8 16.002 9.79086 16.002 12C16.002 14.2091 14.2111 16 12.002 16C9.79281 16 8.00195 14.2091 8.00195 12C8.00195 9.79086 9.79281 8 12.002 8ZM14.002 12C14.002 10.8954 13.1065 10 12.002 10C10.8974 10 10.002 10.8954 10.002 12C10.002 13.1046 10.8974 14 12.002 14C13.1065 14 14.002 13.1046 14.002 12Z" fill="currentColor"/>
<path fill-rule="evenodd" clip-rule="evenodd" d="M12.0002 2C11.434 2 10.8781 2.04716 10.3363 2.13796C9.50627 2.27708 9.00505 2.9111 8.78258 3.4616C8.33718 4.5637 7.25768 5.33838 5.99964 5.33838C5.9228 5.33838 5.84682 5.33551 5.77177 5.3299C5.18005 5.28567 4.39358 5.45466 3.90166 6.13258C3.51541 6.66488 3.1802 7.23698 2.90336 7.84172C2.50958 8.7019 2.85898 9.55447 3.28577 10.0559C3.7318 10.5798 4.00004 11.2568 4.00004 11.999C4.00004 12.7414 3.73167 13.4186 3.28543 13.9426C2.85854 14.4439 2.509 15.2964 2.90262 16.1567C3.17901 16.7607 3.51363 17.3322 3.89918 17.864C4.39124 18.5427 5.17849 18.7117 5.77064 18.6673C5.84604 18.6616 5.9224 18.6587 5.99961 18.6587C7.25833 18.6587 8.33832 19.4342 8.78327 20.5373C9.00555 21.0883 9.50697 21.7232 10.3377 21.8623C10.879 21.9529 11.4345 22 12.0002 22C12.5653 22 13.1203 21.953 13.6611 21.8625C14.4921 21.7235 14.9936 21.0885 15.2159 20.5374C15.6608 19.4343 16.7408 18.6587 17.9996 18.6587C18.077 18.6587 18.1536 18.6616 18.2292 18.6673C18.8215 18.7119 19.6089 18.543 20.1011 17.8641C20.4866 17.3324 20.8213 16.7609 21.0976 16.157C21.4913 15.2966 21.1417 14.4441 20.7148 13.9427C20.2685 13.4187 20 12.7415 20 11.999C20 11.2568 20.2683 10.5797 20.7144 10.0557C21.1413 9.55432 21.4907 8.70167 21.0969 7.84142C20.8201 7.23674 20.4849 6.6647 20.0986 6.13245C19.6066 5.45439 18.8199 5.28549 18.2281 5.32985C18.1529 5.33549 18.0767 5.33838 17.9996 5.33838C16.7415 5.33838 15.662 4.56365 15.2166 3.4615C14.9941 2.91089 14.4928 2.27673 13.6626 2.13771C13.1213 2.04707 12.5659 2 12.0002 2ZM10.6754 4.1365C10.6849 4.12214 10.6932 4.11189 10.6995 4.10505C11.1222 4.036 11.5566 4 12.0002 4C12.4433 4 12.8773 4.03593 13.2996 4.10485C13.3059 4.1117 13.3143 4.12195 13.3238 4.13631C13.3369 4.15627 13.3504 4.18135 13.3623 4.2108C14.1026 6.04284 15.8986 7.33838 17.9996 7.33838C18.1266 7.33838 18.2527 7.33362 18.3776 7.32426C18.4089 7.32191 18.437 7.32286 18.4604 7.32579C18.4774 7.32791 18.4901 7.33085 18.499 7.33344C18.7929 7.74196 19.0491 8.1791 19.2627 8.63976C19.2594 8.65004 19.2538 8.66416 19.2448 8.68146C19.232 8.70582 19.2142 8.73262 19.1915 8.75925C18.4491 9.63138 18 10.764 18 11.999C18 13.2343 18.4493 14.3672 19.1921 15.2395C19.2148 15.2661 19.2326 15.2929 19.2454 15.3173C19.2544 15.3345 19.26 15.3487 19.2633 15.359C19.0501 15.819 18.7943 16.2557 18.501 16.6638C18.4921 16.6664 18.4793 16.6693 18.4624 16.6714C18.4389 16.6744 18.4108 16.6753 18.3795 16.673C18.2539 16.6635 18.1272 16.6587 17.9996 16.6587C15.8975 16.6587 14.1007 17.9556 13.3611 19.7893C13.3492 19.8187 13.3357 19.8439 13.3226 19.8638C13.3131 19.8782 13.3047 19.8885 13.2984 19.8954C12.8765 19.9641 12.4429 20 12.0002 20C11.5571 20 11.123 19.9641 10.7007 19.8951C10.6944 19.8883 10.686 19.878 10.6766 19.8636C10.6634 19.8437 10.6499 19.8186 10.6381 19.7891C9.89845 17.9555 8.10168 16.6587 5.99961 16.6587C5.87236 16.6587 5.74603 16.6635 5.62083 16.6729C5.58951 16.6752 5.56139 16.6743 5.53795 16.6713C5.52099 16.6692 5.50819 16.6663 5.49936 16.6637C5.20597 16.2555 4.95021 15.8188 4.73703 15.3587C4.74031 15.3484 4.74585 15.3343 4.75492 15.317C4.7677 15.2927 4.78548 15.2659 4.80815 15.2392C5.55086 14.3671 6.00004 13.2342 6.00004 11.999C6.00004 10.7642 5.55109 9.63158 4.80873 8.75948C4.78606 8.73285 4.76829 8.70606 4.75551 8.68169C4.74644 8.6644 4.7409 8.65028 4.73762 8.64C4.95117 8.17929 5.2074 7.7421 5.50135 7.33353C5.51018 7.33094 5.52295 7.32801 5.53989 7.32588C5.5633 7.32295 5.59139 7.322 5.62269 7.32434C5.74729 7.33365 5.87301 7.33838 5.99964 7.33838C8.10057 7.33838 9.89654 6.04292 10.6369 4.21098C10.6488 4.18153 10.6622 4.15645 10.6754 4.1365Z" fill="currentColor"/>
</g>
<defs>
<clipPath id="clip0_1447_633251">
<rect width="18" height="20" fill="currentColor" transform="translate(3 2)"/>
</clipPath>
<clipPath id="clip1_1447_633251">
<rect width="20" height="20.0002" fill="currentColor" transform="translate(2 2)"/>
</clipPath>
</defs>
</svg>
