<svg width="100%" height="100%" viewBox="0 0 24 24" fill="none" xmlns="http://www.w3.org/2000/svg">
<g clip-path="url(#clip0_1447_633298)">
<path d="M17 3.5C17 2.94772 16.5523 2.5 16 2.5C15.4477 2.5 15 2.94772 15 3.5V18.5858L13.7071 17.2929C13.3166 16.9024 12.6834 16.9024 12.2929 17.2929C11.9024 17.6834 11.9024 18.3166 12.2929 18.7071L15.2929 21.7071C15.6834 22.0976 16.3166 22.0976 16.7071 21.7071L19.7071 18.7071C20.0976 18.3166 20.0976 17.6834 19.7071 17.2929C19.3166 16.9024 18.6834 16.9024 18.2929 17.2929L17 18.5858V3.5Z" fill="currentColor"/>
<path d="M7 20.5C7 21.0523 7.44772 21.5 8 21.5C8.55229 21.5 9 21.0523 9 20.5L9 5.41421L10.2929 6.70711C10.6834 7.09763 11.3166 7.09763 11.7071 6.70711C12.0976 6.31658 12.0976 5.68342 11.7071 5.29289L8.70711 2.29289C8.31658 1.90237 7.68342 1.90237 7.29289 2.29289L4.29289 5.29289C3.90237 5.68342 3.90237 6.31658 4.29289 6.70711C4.68342 7.09763 5.31658 7.09763 5.70711 6.70711L7 5.41421L7 20.5Z" fill="currentColor"/>
</g>
<defs>
<clipPath id="clip0_1447_633298">
<rect width="16" height="20" fill="currentColor" transform="translate(4 2)"/>
</clipPath>
</defs>
</svg>
